<?xml version="1.0" encoding="utf-8"?>
<!-- Generator: Adobe Illustrator 24.1.1, SVG Export Plug-In . SVG Version: 6.00 Build 0)  -->
<svg version="1.1" id="Layer_1" xmlns="http://www.w3.org/2000/svg" xmlns:xlink="http://www.w3.org/1999/xlink" x="0px" y="0px"
	 viewBox="0 0 1666.52 614.03" style="enable-background:new 0 0 1666.52 614.03;" xml:space="preserve">
<style type="text/css">
	.st0{clip-path:url(#SVGID_2_);}
	.st1{clip-path:url(#SVGID_4_);fill:#2A3241;}
	.st2{clip-path:url(#SVGID_4_);fill:#3E5B81;}
	.st3{clip-path:url(#SVGID_4_);fill:#E2F3F7;}
</style>
<g>
	<defs>
		<rect id="SVGID_1_" x="14.04" y="78.24" width="1598" height="412"/>
	</defs>
	<clipPath id="SVGID_2_">
		<use xlink:href="#SVGID_1_"  style="overflow:visible;"/>
	</clipPath>
	<g class="st0">
		<defs>
			<rect id="SVGID_3_" x="14.04" y="76.24" width="1598" height="414"/>
		</defs>
		<clipPath id="SVGID_4_">
			<use xlink:href="#SVGID_3_"  style="overflow:visible;"/>
		</clipPath>
		<rect x="14.04" y="78.24" class="st1" width="1607.92" height="412"/>
		<path class="st2" d="M-122.83,291.81c0,0-185.72,415.41,127.68,444.66c313.4,29.25,358.66-194.25,358.66-194.25
			s-25.54-182.55,76.61-277.33s-9.29-297.22-9.29-297.22s-198.48-161.48-458.49,0S-122.83,291.81-122.83,291.81z"/>
		<path class="st3" d="M806.6-178.76c0,0-68.87,358.17,231.12,351c89.65-2.14,170.88-33.31,314.44,174
			c47.41,68.47,166.64,107,331.3,0s-186.48-499-186.48-499L806.6-178.76z"/>
		<path class="st3" d="M-318.48,772.88c0,0,225.77,285.14,414.91,50.28c56.52-70.18,85.67-152.73,335.31-128.45
			c82.44,8.02,188.86-58.48,214.87-254.23c26-195.75-377.42-235.89-497.71-180.52C-8.22,332.28-318.48,772.88-318.48,772.88z"/>
		<path class="st2" d="M495.13,490.24c0,0,164.66-208,457.28-120c0,0,168.63,63,309.48-80s355.11-120,355.11-120l226.16,255
			l-292.62,343H420.74C420.74,768.24,408.83,661.24,495.13,490.24z"/>
	</g>
</g>
</svg>
