<?xml version="1.0" encoding="utf-8"?>
<!-- Generator: Adobe Illustrator 24.1.1, SVG Export Plug-In . SVG Version: 6.00 Build 0)  -->
<svg version="1.1" id="Layer_1" xmlns="http://www.w3.org/2000/svg" xmlns:xlink="http://www.w3.org/1999/xlink" x="0px" y="0px"
	 viewBox="0 0 567.46 864" style="enable-background:new 0 0 567.46 864;" xml:space="preserve">
<style type="text/css">
	.st0{clip-path:url(#SVGID_2_);}
	.st1{fill:#99C2D9;}
	.st2{fill:#E2F3F7;}
	.st3{fill:#EE6C4E;}
	.st4{fill:#3E5B81;}
</style>
<g>
	<defs>
		<path id="SVGID_1_" d="M527.38,864H40.09C17.95,864,0,846.05,0,823.91V40.09C0,17.95,17.95,0,40.09,0h487.29
			c22.14,0,40.09,17.95,40.09,40.09v783.83C567.46,846.05,549.52,864,527.38,864z"/>
	</defs>
	<clipPath id="SVGID_2_">
		<use xlink:href="#SVGID_1_"  style="overflow:visible;"/>
	</clipPath>
	<g class="st0">
		<rect x="-141.53" y="-98.4" class="st1" width="779.08" height="977.22"/>
		<path class="st2" d="M-167.14,97.05c0,0,10.78,381.45,293.84,525.68s258.8,318.1,258.8,318.1l-527.03,44.48l-148.27-444.8
			L-167.14,97.05z"/>
		<path class="st3" d="M-25.44-134.57c-35.23,4.27-57.64,39.81-46.32,73.44c27.67,82.2,88.51,214.39,197.11,230.96
			c151.06,23.04,178.1,93.51,198.92,229.87c2.36,15.48,11.1,29.25,24.07,38.02c44.13,29.83,152.43,83.66,266.3-6.4
			C735.42,335.8,711.3,53.34,698.21-48.11c-2.87-22.22-18.72-40.57-40.28-46.67l-292.61-82.77c-7.14-2.02-14.61-2.6-21.97-1.71
			L-25.44-134.57z"/>
		<path class="st4" d="M741.72,477.68c-23.9-22.81-92.71-81.03-177.97-87.01c-89.97-6.31-159.04,94.77-137.13,200.07
			c27.87,133.91,30.62,326.39-182.65,329.56c-279.9,4.16,381.23,19,579.45,23.22c26.4,0.56,45.31-30.48,36.96-60.65L754.21,499.19
			C751.86,490.71,747.53,483.23,741.72,477.68z"/>
	</g>
</g>
</svg>
