<?xml version="1.0" encoding="utf-8"?>
<!-- Generator: Adobe Illustrator 24.1.1, SVG Export Plug-In . SVG Version: 6.00 Build 0)  -->
<svg version="1.1" id="Layer_1" xmlns="http://www.w3.org/2000/svg" xmlns:xlink="http://www.w3.org/1999/xlink" x="0px" y="0px"
	 viewBox="0 0 1666.52 614.03" style="enable-background:new 0 0 1666.52 614.03;" xml:space="preserve">
<style type="text/css">
	.st0{fill:#FFFFFF;}
	.st1{font-family:'Rubik-Medium';}
	.st2{font-size:23.8076px;}
	.st3{clip-path:url(#SVGID_2_);fill:#293340;}
	.st4{fill:#293340;}
	.st5{clip-path:url(#SVGID_4_);fill:#293340;}
	.st6{clip-path:url(#SVGID_6_);fill:#293340;}
	.st7{clip-path:url(#SVGID_8_);fill:#293340;}
	.st8{clip-path:url(#SVGID_10_);fill:#293340;}
	.st9{clip-path:url(#SVGID_10_);fill:#E2F3F8;}
</style>
<path class="st0" d="M767.88,229.63c0,0.17-0.07,0.29-0.21,0.39c-0.14,0.09-0.3,0.12-0.46,0.07l-1.68-0.46
	c-0.14-0.04-0.25-0.12-0.34-0.24c-0.09-0.12-0.15-0.28-0.18-0.47l-0.09-0.91c-0.11-0.98-0.42-1.81-0.93-2.47
	c-0.51-0.66-1.38-1.16-2.6-1.5c-0.84-0.23-1.53-0.32-2.06-0.26c-0.53,0.06-0.97,0.28-1.31,0.68c-0.34,0.39-0.62,0.99-0.84,1.8
	l-1.47,5.35c-0.04,0.15-0.13,0.27-0.27,0.35c-0.14,0.08-0.28,0.1-0.43,0.05l-1.47-0.41c-0.15-0.04-0.26-0.13-0.33-0.27
	c-0.07-0.13-0.08-0.28-0.04-0.43l1.63-5.9c0.56-2.03,1.43-3.35,2.6-3.95c1.17-0.6,2.78-0.62,4.83-0.05
	c1.94,0.54,3.36,1.49,4.25,2.87c0.89,1.38,1.35,2.96,1.39,4.73L767.88,229.63L767.88,229.63z M770.65,235.73
	c-0.04,0.15-0.13,0.27-0.26,0.35c-0.13,0.08-0.28,0.1-0.45,0.05l-11.59-3.2c-0.17-0.05-0.29-0.14-0.36-0.27
	c-0.07-0.13-0.08-0.28-0.04-0.43l0.49-1.79c0.04-0.15,0.13-0.27,0.27-0.35c0.14-0.08,0.28-0.1,0.43-0.05l11.59,3.2
	c0.15,0.04,0.27,0.13,0.35,0.27c0.08,0.14,0.1,0.28,0.05,0.43L770.65,235.73L770.65,235.73z"/>
<path class="st0" d="M765.53,217.98c-0.06,0.15-0.16,0.25-0.3,0.32c-0.14,0.06-0.29,0.07-0.44,0.01l-6.43-2.45
	c-0.16-0.06-0.27-0.16-0.33-0.3c-0.06-0.14-0.06-0.28,0-0.43l0.72-1.89c0.06-0.16,0.16-0.27,0.29-0.33c0.13-0.06,0.28-0.06,0.44,0
	l6.43,2.45c0.15,0.06,0.26,0.15,0.32,0.29c0.07,0.14,0.07,0.29,0.01,0.45L765.53,217.98L765.53,217.98z"/>
<path class="st0" d="M762.36,204.93c0.94-1.89,2.04-3.02,3.3-3.38c1.26-0.37,2.85-0.08,4.75,0.87c1.81,0.9,3.01,2.11,3.62,3.63
	c0.61,1.52,0.76,3.16,0.46,4.91l-0.16,1.01c-0.03,0.16-0.12,0.28-0.28,0.34c-0.16,0.06-0.31,0.06-0.47-0.02l-1.56-0.77
	c-0.13-0.06-0.23-0.17-0.29-0.32c-0.07-0.15-0.09-0.32-0.07-0.5l0.07-0.89c0.08-0.99-0.06-1.85-0.44-2.6
	c-0.37-0.74-1.13-1.4-2.27-1.96c-0.78-0.39-1.44-0.6-1.98-0.65c-0.54-0.04-1.01,0.09-1.41,0.41c-0.41,0.32-0.79,0.85-1.16,1.59
	l-0.29,0.58l-0.04,0.09l-1.21,2.38c-0.08,0.16-0.19,0.26-0.33,0.32c-0.14,0.05-0.28,0.05-0.43-0.03l-4.31-2.14
	c-0.14-0.07-0.24-0.18-0.29-0.33c-0.05-0.15-0.04-0.3,0.04-0.46l0.77-1.56c0.08-0.16,0.19-0.26,0.32-0.3
	c0.14-0.05,0.29-0.03,0.44,0.05l2.45,1.22L762.36,204.93L762.36,204.93z"/>
<path class="st0" d="M781.74,198.64c-0.05,0.16-0.15,0.26-0.32,0.31c-0.16,0.05-0.32,0.02-0.46-0.08l-1.45-0.96
	c-0.12-0.08-0.2-0.19-0.25-0.34c-0.05-0.15-0.06-0.31-0.03-0.5l0.19-0.9c0.2-0.97,0.16-1.85-0.12-2.63s-0.95-1.53-2.01-2.22
	c-0.73-0.48-1.36-0.77-1.88-0.88c-0.53-0.11-1.01-0.03-1.45,0.24c-0.44,0.27-0.9,0.75-1.36,1.46l-3.05,4.63
	c-0.09,0.13-0.21,0.21-0.36,0.25c-0.15,0.03-0.3,0-0.43-0.08l-1.27-0.84c-0.13-0.09-0.21-0.21-0.24-0.36
	c-0.03-0.15,0.01-0.29,0.09-0.42l3.37-5.11c1.16-1.76,2.39-2.75,3.69-2.96c1.3-0.21,2.83,0.27,4.61,1.44
	c1.68,1.11,2.73,2.46,3.15,4.04c0.42,1.59,0.37,3.23-0.14,4.93L781.74,198.64L781.74,198.64z M782.49,205.3
	c-0.09,0.13-0.2,0.22-0.35,0.25c-0.15,0.04-0.29,0.01-0.44-0.09l-10.04-6.61c-0.15-0.1-0.23-0.22-0.26-0.37
	c-0.03-0.15,0.01-0.29,0.09-0.42l1.02-1.55c0.09-0.13,0.21-0.21,0.36-0.25c0.15-0.03,0.3,0,0.43,0.08l10.04,6.61
	c0.13,0.09,0.21,0.21,0.25,0.36c0.03,0.15,0,0.3-0.08,0.43L782.49,205.3L782.49,205.3z"/>
<path class="st0" d="M787.06,190.52c-0.1,0.12-0.23,0.19-0.39,0.2c-0.16,0.01-0.3-0.03-0.42-0.14l-1.07-0.91
	c-0.13-0.11-0.2-0.25-0.21-0.4c-0.01-0.15,0.04-0.29,0.14-0.41l4.15-4.87l-3.88-3.3c-1.73-1.47-3.32-1.35-4.78,0.37l-1.81,2.12
	c-0.1,0.12-0.23,0.19-0.39,0.2c-0.16,0.01-0.3-0.03-0.42-0.14l-1.07-0.91c-0.13-0.11-0.2-0.25-0.21-0.4
	c-0.01-0.15,0.04-0.29,0.14-0.41l1.88-2.21c1.38-1.62,2.78-2.53,4.22-2.73c1.43-0.2,2.91,0.36,4.45,1.66l3.91,3.34l0.56-0.65
	c0.11-0.13,0.24-0.2,0.39-0.22c0.15-0.01,0.28,0.04,0.42,0.15l1.07,0.91c0.12,0.1,0.19,0.23,0.21,0.38
	c0.02,0.15-0.03,0.29-0.14,0.43L787.06,190.52L787.06,190.52z"/>
<text transform="matrix(0.7036 -0.7106 0.7106 0.7036 794.7642 181.7901)" class="st0 st1 st2"> </text>
<path class="st0" d="M796.22,162.04c1.63-1.34,3.15-1.98,4.57-1.9c1.42,0.07,2.75,0.86,3.99,2.37l4.59,5.56
	c0.1,0.12,0.15,0.26,0.14,0.41c-0.01,0.15-0.08,0.28-0.22,0.39l-1.47,1.21c-0.12,0.1-0.26,0.14-0.42,0.13
	c-0.16-0.01-0.29-0.08-0.39-0.21l-4.51-5.47c-1.43-1.74-3.03-1.89-4.78-0.44l-1.25,1.03c0.32,0.64,0.66,1.22,1,1.74
	c0.34,0.52,0.78,1.08,1.29,1.68l4.15,4.85c0.1,0.12,0.14,0.26,0.13,0.42c-0.02,0.16-0.08,0.29-0.21,0.39l-3.25,2.65
	c-0.12,0.1-0.26,0.14-0.42,0.13c-0.16-0.01-0.29-0.08-0.39-0.21l-0.83-1.01c-0.11-0.13-0.16-0.28-0.14-0.43
	c0.02-0.15,0.09-0.28,0.21-0.38l1.47-1.18l-2.82-3.42c-0.53-0.61-0.97-1.18-1.33-1.7c-0.36-0.52-0.69-1.11-1.01-1.77l-1.05,0.86
	c-0.12,0.1-0.26,0.14-0.42,0.13c-0.16-0.01-0.29-0.08-0.39-0.21l-0.89-1.08c-0.11-0.13-0.16-0.28-0.14-0.43
	c0.02-0.15,0.09-0.28,0.21-0.38L796.22,162.04L796.22,162.04z"/>
<path class="st0" d="M812.93,166.58c-0.13,0.09-0.28,0.12-0.43,0.09c-0.15-0.03-0.28-0.11-0.36-0.24l-6.91-10.36
	c-0.1-0.15-0.13-0.29-0.09-0.44c0.04-0.15,0.12-0.27,0.25-0.35l1.66-1.11c0.15-0.1,0.29-0.13,0.43-0.1
	c0.14,0.03,0.26,0.12,0.36,0.26l6.91,10.36c0.09,0.13,0.12,0.27,0.1,0.42c-0.02,0.15-0.11,0.27-0.25,0.37L812.93,166.58
	L812.93,166.58z"/>
<path class="st0" d="M818.3,163.04c-0.14,0.07-0.29,0.09-0.44,0.04c-0.15-0.05-0.26-0.14-0.34-0.28l-5.83-11
	c-0.08-0.15-0.1-0.3-0.05-0.45c0.05-0.14,0.14-0.25,0.29-0.33l4.5-2.39c1.89-1,3.52-1.33,4.89-0.97c1.36,0.35,2.52,1.43,3.47,3.22
	l3.33,6.29c0.07,0.14,0.09,0.28,0.05,0.43c-0.04,0.15-0.14,0.26-0.29,0.34l-1.68,0.89c-0.14,0.07-0.29,0.09-0.44,0.04
	c-0.15-0.05-0.26-0.14-0.34-0.28l-3.32-6.27c-1.06-1.99-2.59-2.46-4.59-1.39l-2.21,1.17l4.91,9.26c0.07,0.14,0.09,0.28,0.05,0.43
	c-0.04,0.15-0.14,0.26-0.29,0.34L818.3,163.04L818.3,163.04z"/>
<path class="st0" d="M831.87,156.33c-0.15,0.06-0.29,0.06-0.44,0c-0.14-0.06-0.25-0.16-0.31-0.31l-4.7-11.53
	c-0.07-0.16-0.07-0.31,0-0.45c0.06-0.14,0.17-0.24,0.32-0.3l1.85-0.75c0.16-0.07,0.31-0.07,0.44-0.01c0.13,0.06,0.23,0.17,0.3,0.33
	l4.7,11.53c0.06,0.15,0.06,0.29,0.01,0.43c-0.05,0.14-0.16,0.25-0.32,0.31L831.87,156.33L831.87,156.33z"/>
<path class="st0" d="M837.78,153.98c-0.15,0.05-0.3,0.04-0.44-0.03c-0.14-0.07-0.23-0.18-0.28-0.33l-0.46-1.43
	c-0.05-0.17-0.04-0.32,0.03-0.45c0.07-0.13,0.19-0.22,0.34-0.27l3.26-1.05c1.09-0.35,1.81-0.89,2.17-1.61
	c0.36-0.72,0.39-1.62,0.09-2.69c-0.05-0.2-0.12-0.45-0.21-0.73c-0.09-0.29-0.18-0.52-0.25-0.7c-0.77-2.14-2.22-2.86-4.35-2.17
	l-3.26,1.05c-0.15,0.05-0.3,0.04-0.44-0.03c-0.14-0.07-0.23-0.18-0.28-0.33l-0.46-1.43c-0.05-0.17-0.04-0.32,0.03-0.45
	c0.07-0.13,0.19-0.22,0.34-0.27l3.38-1.09c2.01-0.65,3.66-0.64,4.94,0.03c1.28,0.67,2.26,1.92,2.93,3.73
	c0.08,0.19,0.17,0.44,0.26,0.74c0.1,0.32,0.18,0.58,0.23,0.78c0.52,1.87,0.45,3.45-0.2,4.74c-0.65,1.29-1.98,2.26-3.99,2.91
	L837.78,153.98L837.78,153.98z"/>
<g>
	<defs>
		<rect id="SVGID_1_" x="736.57" y="120.55" width="277.09" height="277.09"/>
	</defs>
	<clipPath id="SVGID_2_">
		<use xlink:href="#SVGID_1_"  style="overflow:visible;"/>
	</clipPath>
	<path class="st3" d="M901.48,278.73l51.6,51.6c5.13-5.33,9.56-11.08,13.28-17.15l-49.66-49.66L901.48,278.73z"/>
	<path class="st3" d="M898.82,240.26l51.68-51.68c-5.32-5.12-11.06-9.54-17.13-13.25l-49.74,49.74L898.82,240.26z"/>
	<path class="st3" d="M898.79,281.42l-15.21,15.21l49.66,49.66c6.07-3.72,11.82-8.15,17.15-13.28L898.79,281.42z"/>
</g>
<rect x="888.05" y="250.1" transform="matrix(0.7071 -0.7071 0.7071 0.7071 78.8148 711.9481)" class="st4" width="21.51" height="21.48"/>
<g>
	<defs>
		<rect id="SVGID_3_" x="736.57" y="120.55" width="277.09" height="277.09"/>
	</defs>
	<clipPath id="SVGID_4_">
		<use xlink:href="#SVGID_3_"  style="overflow:visible;"/>
	</clipPath>
	<path class="st5" d="M863.01,281.44l-51.68,51.68c5.32,5.12,11.06,9.54,17.13,13.25l49.74-49.74L863.01,281.44z"/>
	<path class="st5" d="M863.04,240.28l15.21-15.21l-49.66-49.66c-6.07,3.72-11.82,8.15-17.15,13.28L863.04,240.28z"/>
	<path class="st5" d="M860.35,242.97l-51.6-51.6c-5.13,5.33-9.56,11.08-13.28,17.15l49.66,49.66L860.35,242.97z"/>
</g>
<rect x="870.14" y="268" transform="matrix(0.7071 -0.7071 0.7071 0.7071 60.9104 704.5318)" class="st4" width="21.51" height="21.48"/>
<g>
	<defs>
		<rect id="SVGID_5_" x="736.57" y="120.55" width="277.09" height="277.09"/>
	</defs>
	<clipPath id="SVGID_6_">
		<use xlink:href="#SVGID_5_"  style="overflow:visible;"/>
	</clipPath>
	<path class="st6" d="M929.85,348.28l-48.96-48.96l-49.03,49.03C862.17,365.31,899.5,365.28,929.85,348.28"/>
	<path class="st6" d="M880.94,222.38l49.03-49.03c-30.32-16.95-67.65-16.93-97.99,0.08L880.94,222.38z"/>
	<path class="st6" d="M968.42,211.79l-49.03,49.03l48.96,48.96C985.35,279.43,985.38,242.11,968.42,211.79"/>
	<path class="st6" d="M793.41,309.91l49.03-49.03l-48.96-48.96C776.48,242.27,776.46,279.59,793.41,309.91"/>
</g>
<rect x="870.17" y="232.22" transform="matrix(0.7071 -0.7071 0.7071 0.7071 86.2199 694.0714)" class="st4" width="21.51" height="21.48"/>
<g>
	<defs>
		<rect id="SVGID_7_" x="736.57" y="120.55" width="277.09" height="277.09"/>
	</defs>
	<clipPath id="SVGID_8_">
		<use xlink:href="#SVGID_7_"  style="overflow:visible;"/>
	</clipPath>
	<path class="st7" d="M953.18,191.27l-51.68,51.68l15.19,15.19l49.74-49.74C962.72,202.33,958.31,196.59,953.18,191.27"/>
</g>
<rect x="852.27" y="250.12" transform="matrix(0.7071 -0.7071 0.7071 0.7071 68.3153 686.6556)" class="st4" width="21.51" height="21.48"/>
<g>
	<defs>
		<rect id="SVGID_9_" x="736.57" y="120.55" width="277.09" height="277.09"/>
	</defs>
	<clipPath id="SVGID_10_">
		<use xlink:href="#SVGID_9_"  style="overflow:visible;"/>
	</clipPath>
	<path class="st8" d="M808.64,330.43l51.68-51.68l-15.19-15.19l-49.74,49.74C799.1,319.37,803.52,325.11,808.64,330.43"/>
	<path class="st9" d="M842.44,260.88l-49.03,49.03c-16.95-30.32-16.93-67.65,0.07-98L842.44,260.88z M929.98,173.34l-49.03,49.03
		l-48.96-48.96C862.33,156.42,899.66,156.39,929.98,173.34 M919.39,260.82l49.03-49.03c16.95,30.32,16.93,67.65-0.07,97.99
		L919.39,260.82z M880.89,299.32l48.96,48.96c-30.35,17-67.67,17.03-97.99,0.08L880.89,299.32z M860.32,278.76l-51.68,51.68
		c-5.12-5.32-9.54-11.06-13.25-17.13l49.74-49.74L860.32,278.76z M863.03,245.66l15.19,15.19l-15.21,15.21l-15.19-15.19
		L863.03,245.66z M896.13,242.95l-15.21,15.21l-15.19-15.19l15.21-15.21L896.13,242.95z M901.51,242.94l51.68-51.68
		c5.12,5.32,9.54,11.06,13.25,17.13l-49.74,49.74L901.51,242.94z M898.79,276.04l-15.19-15.19l15.21-15.21l15.19,15.19
		L898.79,276.04z M880.89,293.94l-15.19-15.19l15.21-15.21l15.19,15.19L880.89,293.94z M933.24,346.29l-49.66-49.66l15.21-15.21
		l51.6,51.6C945.06,338.14,939.31,342.57,933.24,346.29 M953.08,330.32l-51.6-51.6l15.21-15.21l49.66,49.66
		C962.64,319.25,958.21,325,953.08,330.32 M950.5,188.58l-51.68,51.68l-15.19-15.19l49.74-49.74
		C939.43,179.04,945.18,183.46,950.5,188.58 M828.59,175.41l49.66,49.66l-15.21,15.21l-51.6-51.6
		C816.77,183.56,822.52,179.13,828.59,175.41 M808.75,191.38l51.6,51.6l-15.21,15.21l-49.66-49.66
		C799.19,202.45,803.62,196.7,808.75,191.38 M811.33,333.12l51.68-51.68l15.19,15.19l-49.74,49.74
		C822.4,342.66,816.65,338.24,811.33,333.12 M933.82,350.41c0.11-0.05,0.21-0.12,0.31-0.19c7.25-4.32,14.09-9.6,20.33-15.83
		c6.24-6.24,11.51-13.08,15.83-20.33c0.08-0.1,0.14-0.2,0.19-0.3c19.26-32.56,19.29-73.41,0.08-105.94
		c-0.05-0.11-0.12-0.21-0.19-0.31c-4.31-7.24-9.57-14.08-15.8-20.3c0,0,0,0-0.01-0.01s-0.01,0-0.01-0.01
		c-6.23-6.22-13.06-11.48-20.3-15.8c-0.1-0.07-0.2-0.14-0.31-0.19c-32.53-19.21-73.38-19.18-105.94,0.08
		c-0.11,0.05-0.21,0.12-0.31,0.19c-7.25,4.32-14.09,9.59-20.33,15.83c-6.24,6.24-11.51,13.08-15.83,20.33
		c-0.08,0.1-0.14,0.2-0.19,0.31c-19.26,32.56-19.29,73.42-0.08,105.95c0.05,0.1,0.11,0.2,0.18,0.29c4.31,7.25,9.58,14.08,15.8,20.31
		c6.23,6.23,13.06,11.49,20.31,15.8c0.09,0.07,0.19,0.13,0.29,0.18C860.4,369.71,901.26,369.68,933.82,350.41"/>
</g>
</svg>
